SRRun02_grf
version=1
nRows=34
nColumns=19
inDegrees=no
endheader
time	ground_force_r_vx	ground_force_r_vy	ground_force_r_vz	ground_force_r_px	ground_force_r_py	ground_force_r_pz	ground_force_r_mx	ground_force_r_my	ground_force_r_mz	ground_force_l_vx	ground_force_l_vy	ground_force_l_vz	ground_force_l_px	ground_force_l_py	ground_force_l_pz	ground_force_l_mx	ground_force_l_my	ground_force_l_mz
    147.49900000	   -149.49520416	   1461.94650447	    -65.25211788	      1.25433831	      0.00000000	     -0.27152799	      0.00002233	     27.16436098	      0.00008941	      0.00000000	      0.00000000	      0.00000000	      0.00000000	      0.00000000	      0.00000000	      0.00000000	      0.00000000	      0.00000000
    147.50000000	   -149.47268057	   1480.46052643	    -47.26346236	      1.24115160	      0.00000000	     -0.27150347	      0.00002259	     28.44501360	      0.00008777	      0.00000000	      0.00000000	      0.00000000	      0.00000000	      0.00000000	      0.00000000	      0.00000000	      0.00000000	      0.00000000
    147.50100000	   -146.28324739	   1494.03546768	    -26.61967425	      1.22933712	      0.00000000	     -0.27126433	      0.00002272	     28.16301674	      0.00008588	      0.00000000	      0.00000000	      0.00000000	      0.00000000	      0.00000000	      0.00000000	      0.00000000	      0.00000000	      0.00000000
    147.50200000	   -140.52122418	   1503.38051353	     -4.02321028	      1.21914660	      0.00000000	     -0.27083806	      0.00002274	     26.12810217	      0.00008381	      0.00000000	      0.00000000	      0.00000000	      0.00000000	      0.00000000	      0.00000000	      0.00000000	      0.00000000	      0.00000000
    147.50300000	   -132.97356045	   1509.27983345	     19.64748319	      1.21069802	      0.00000000	     -0.27026524	      0.00002267	     22.25001096	      0.00008161	      0.00000000	      0.00000000	      0.00000000	      0.00000000	      0.00000000	      0.00000000	      0.00000000	      0.00000000	      0.00000000
    147.50400000	   -124.56612805	   1512.54989212	     43.37969952	      1.20397542	      0.00000000	     -0.26959620	      0.00002250	     16.56251719	      0.00007933	      0.00000000	      0.00000000	      0.00000000	      0.00000000	      0.00000000	      0.00000000	      0.00000000	      0.00000000	      0.00000000
    147.50500000	   -116.29647577	   1513.99961198	     66.07980572	      1.19883976	      0.00000000	     -0.26888665	      0.00002224	      9.23908154	      0.00007704	      0.00000000	      0.00000000	      0.00000000	      0.00000000	      0.00000000	      0.00000000	      0.00000000	      0.00000000	      0.00000000
    147.50600000	   -109.15870129	   1514.39601487	     86.63436859	      1.19504845	      0.00000000	     -0.26819278	      0.00002188	      0.59717745	      0.00007479	      0.00000000	      0.00000000	      0.00000000	      0.00000000	      0.00000000	      0.00000000	      0.00000000	      0.00000000	      0.00000000
    147.50700000	   -104.06729450	   1514.43623616	    103.97471349	      1.19228128	      0.00000000	     -0.26756670	      0.00002142	     -8.91071132	      0.00007264	      0.00000000	      0.00000000	      0.00000000	      0.00000000	      0.00000000	      0.00000000	      0.00000000	      0.00000000	      0.00000000
    147.50800000	   -101.78723833	   1514.72541679	    117.14091263	      1.19017086	      0.00000000	     -0.26705261	      0.00002085	    -18.72017215	      0.00007064	      0.00000000	      0.00000000	      0.00000000	      0.00000000	      0.00000000	      0.00000000	      0.00000000	      0.00000000	      0.00000000
    147.50900000	   -102.87706621	   1515.75954207	    125.34179429	      1.18833543	      0.00000000	     -0.26668391	      0.00002020	    -28.19125192	      0.00006882	      0.00000000	      0.00000000	      0.00000000	      0.00000000	      0.00000000	      0.00000000	      0.00000000	      0.00000000	      0.00000000
    147.51000000	   -107.65001655	   1517.91284429	    128.00781316	      1.18641184	      0.00000000	     -0.26648131	      0.00001947	    -36.65577662	      0.00006721	      0.00000000	      0.00000000	      0.00000000	      0.00000000	      0.00000000	      0.00000000	      0.00000000	      0.00000000	      0.00000000
    147.51100000	   -116.15625721	   1521.43044226	    124.83349862	      1.18408535	      0.00000000	     -0.26645179	      0.00001872	    -43.47179949	      0.00006585	      0.00000000	      0.00000000	      0.00000000	      0.00000000	      0.00000000	      0.00000000	      0.00000000	      0.00000000	      0.00000000
    147.51200000	   -128.18683227	   1526.42770322	    115.80615498	      1.18111323	      0.00000000	     -0.26658856	      0.00001800	    -48.08032893	      0.00006476	      0.00000000	      0.00000000	      0.00000000	      0.00000000	      0.00000000	      0.00000000	      0.00000000	      0.00000000	      0.00000000
    147.51300000	   -143.29786785	   1532.89783279	    101.21799013	      1.17733921	      0.00000000	     -0.26687192	      0.00001738	    -50.05892590	      0.00006400	      0.00000000	      0.00000000	      0.00000000	      0.00000000	      0.00000000	      0.00000000	      0.00000000	      0.00000000	      0.00000000
    147.51400000	   -160.85184503	   1540.72827773	     81.65995832	      1.17269733	      0.00000000	     -0.26727101	      0.00001692	    -49.16676094	      0.00006363	      0.00000000	      0.00000000	      0.00000000	      0.00000000	      0.00000000	      0.00000000	      0.00000000	      0.00000000	      0.00000000
    147.51500000	   -180.07147851	   1549.72485418	     57.99692535	      1.16720546	      0.00000000	     -0.26774611	      0.00001668	    -45.37632681	      0.00006378	      0.00000000	      0.00000000	      0.00000000	      0.00000000	      0.00000000	      0.00000000	      0.00000000	      0.00000000	      0.00000000
    147.51600000	   -200.10097241	   1559.64070935	     31.32484725	      1.16095054	      0.00000000	     -0.26825154	      0.00001668	    -38.88811582	      0.00006458	      0.00000000	      0.00000000	      0.00000000	      0.00000000	      0.00000000	      0.00000000	      0.00000000	      0.00000000	      0.00000000
    147.51700000	   -220.06920334	   1570.20611882	      2.91148646	      1.15406896	      0.00000000	     -0.26873882	      0.00001693	    -30.12601383	      0.00006617	      0.00000000	      0.00000000	      0.00000000	      0.00000000	      0.00000000	      0.00000000	      0.00000000	      0.00000000	      0.00000000
    147.51800000	   -239.14970983	   1581.15519962	    -25.87676016	      1.14672566	      0.00000000	     -0.26916042	      0.00001739	    -19.71284026	      0.00006870	      0.00000000	      0.00000000	      0.00000000	      0.00000000	      0.00000000	      0.00000000	      0.00000000	      0.00000000	      0.00000000
    147.51900000	   -256.61314361	   1592.24670842	    -53.65772321	      1.13909497	      0.00000000	     -0.26947383	      0.00001801	     -8.42731553	      0.00007224	      0.00000000	      0.00000000	      0.00000000	      0.00000000	      0.00000000	      0.00000000	      0.00000000	      0.00000000	      0.00000000
    147.52000000	   -271.86884914	   1603.27761384	    -79.11995596	      1.13134499	      0.00000000	     -0.26964555	      0.00001871	      2.85442695	      0.00007679	      0.00000000	      0.00000000	      0.00000000	      0.00000000	      0.00000000	      0.00000000	      0.00000000	      0.00000000	      0.00000000
    147.52100000	   -284.49330576	   1614.08959593	   -101.10559787	      1.12362650	      0.00000000	     -0.26965444	      0.00001939	     13.22812210	      0.00008225	      0.00000000	      0.00000000	      0.00000000	      0.00000000	      0.00000000	      0.00000000	      0.00000000	      0.00000000	      0.00000000
    147.52200000	   -294.24424667	   1624.56983630	   -118.68248871	      1.11606600	      0.00000000	     -0.26949373	      0.00001998	     21.83570044	      0.00008839	      0.00000000	      0.00000000	      0.00000000	      0.00000000	      0.00000000	      0.00000000	      0.00000000	      0.00000000	      0.00000000
    147.52300000	   -301.06038846	   1634.64824613	   -131.19984913	      1.10876203	      0.00000000	     -0.26917131	      0.00002041	     27.93831962	      0.00009488	      0.00000000	      0.00000000	      0.00000000	      0.00000000	      0.00000000	      0.00000000	      0.00000000	      0.00000000	      0.00000000
    147.52400000	   -305.04783107	   1644.29342685	   -138.32378145	      1.10178350	      0.00000000	     -0.26870851	      0.00002064	     30.98164022	      0.00010134	      0.00000000	      0.00000000	      0.00000000	      0.00000000	      0.00000000	      0.00000000	      0.00000000	      0.00000000	      0.00000000
    147.52500000	   -306.45521489	   1653.50906880	   -140.05054464	      1.09516909	      0.00000000	     -0.26813730	      0.00002067	     30.64728674	      0.00010735	      0.00000000	      0.00000000	      0.00000000	      0.00000000	      0.00000000	      0.00000000	      0.00000000	      0.00000000	      0.00000000
    147.52600000	   -305.64055662	   1662.33133705	   -136.69701195	      1.08892719	      0.00000000	     -0.26749661	      0.00002051	     26.88544870	      0.00011251	      0.00000000	      0.00000000	      0.00000000	      0.00000000	      0.00000000	      0.00000000	      0.00000000	      0.00000000	      0.00000000
    147.52700000	   -303.03327504	   1670.82650977	   -128.86938886	      1.08303684	      0.00000000	     -0.26682800	      0.00002020	     19.92515324	      0.00011651	      0.00000000	      0.00000000	      0.00000000	      0.00000000	      0.00000000	      0.00000000	      0.00000000	      0.00000000	      0.00000000
    147.52800000	   -299.09515690	   1679.08723166	   -117.41327187	      1.07745050	      0.00000000	     -0.26617134	      0.00001981	     10.26063384	      0.00011914	      0.00000000	      0.00000000	      0.00000000	      0.00000000	      0.00000000	      0.00000000	      0.00000000	      0.00000000	      0.00000000
    147.52900000	   -294.28379189	   1687.22570157	   -103.34994762	      1.07209940	      0.00000000	     -0.26556110	      0.00001938	     -1.38576931	      0.00012031	      0.00000000	      0.00000000	      0.00000000	      0.00000000	      0.00000000	      0.00000000	      0.00000000	      0.00000000	      0.00000000
    147.53000000	   -289.02135921	   1695.36311755	    -87.80472542	      1.06690173	      0.00000000	     -0.26502379	      0.00001897	    -14.12168779	      0.00012006	      0.00000000	      0.00000000	      0.00000000	      0.00000000	      0.00000000	      0.00000000	      0.00000000	      0.00000000	      0.00000000
    147.53100000	   -283.67073832	   1703.61627565	    -71.93279854	      1.06177288	      0.00000000	     -0.26457676	      0.00001862	    -26.95928850	      0.00011850	      0.00000000	      0.00000000	      0.00000000	      0.00000000	      0.00000000	      0.00000000	      0.00000000	      0.00000000	      0.00000000
    147.53200000	   -278.51991267	   1712.08341825	    -56.84713559	      1.05663611	      0.00000000	     -0.26422826	      0.00001839	    -38.90004798	      0.00011583	      0.00000000	      0.00000000	      0.00000000	      0.00000000	      0.00000000	      0.00000000	      0.00000000	      0.00000000	      0.00000000
